<mxfile host="app.diagrams.net" modified="2022-02-28T17:05:47.873Z" agent="5.0 (Macintosh; Intel Mac OS X 10_15_7) AppleWebKit/605.1.15 (KHTML, like Gecko) Version/15.3 Safari/605.1.15" etag="WjIHnpgSiprJcZejUajN" version="16.6.4" type="github" pages="3">
  <diagram id="COLCSK0MrvxZKW3tuzwy" name="Page-2">
    <mxGraphModel dx="1425" dy="692" grid="1" gridSize="10" guides="1" tooltips="1" connect="1" arrows="1" fold="1" page="1" pageScale="1" pageWidth="850" pageHeight="1100" math="0" shadow="0">
      <root>
        <mxCell id="dSowcYVEUooKdNPJAT83-0" />
        <mxCell id="dSowcYVEUooKdNPJAT83-1" parent="dSowcYVEUooKdNPJAT83-0" />
        <mxCell id="TUA8Hdbmf8-CmrJUC6xi-0" value="" style="rounded=0;html=1;jettySize=auto;orthogonalLoop=1;fontSize=11;endArrow=block;endFill=0;endSize=8;strokeWidth=1;shadow=0;labelBackgroundColor=none;edgeStyle=orthogonalEdgeStyle;" edge="1" parent="dSowcYVEUooKdNPJAT83-1" source="TUA8Hdbmf8-CmrJUC6xi-1" target="TUA8Hdbmf8-CmrJUC6xi-4">
          <mxGeometry relative="1" as="geometry" />
        </mxCell>
        <mxCell id="TUA8Hdbmf8-CmrJUC6xi-1" value="Translator" style="rounded=1;whiteSpace=wrap;html=1;fontSize=12;glass=0;strokeWidth=1;shadow=0;" vertex="1" parent="dSowcYVEUooKdNPJAT83-1">
          <mxGeometry x="190" y="140" width="120" height="40" as="geometry" />
        </mxCell>
        <mxCell id="TUA8Hdbmf8-CmrJUC6xi-2" value="no" style="rounded=0;html=1;jettySize=auto;orthogonalLoop=1;fontSize=11;endArrow=block;endFill=0;endSize=8;strokeWidth=1;shadow=0;labelBackgroundColor=none;edgeStyle=orthogonalEdgeStyle;" edge="1" parent="dSowcYVEUooKdNPJAT83-1" source="TUA8Hdbmf8-CmrJUC6xi-4" target="TUA8Hdbmf8-CmrJUC6xi-8">
          <mxGeometry y="20" relative="1" as="geometry">
            <mxPoint as="offset" />
          </mxGeometry>
        </mxCell>
        <mxCell id="TUA8Hdbmf8-CmrJUC6xi-3" value="yes" style="edgeStyle=orthogonalEdgeStyle;rounded=0;html=1;jettySize=auto;orthogonalLoop=1;fontSize=11;endArrow=block;endFill=0;endSize=8;strokeWidth=1;shadow=0;labelBackgroundColor=none;" edge="1" parent="dSowcYVEUooKdNPJAT83-1" source="TUA8Hdbmf8-CmrJUC6xi-4" target="TUA8Hdbmf8-CmrJUC6xi-5">
          <mxGeometry y="10" relative="1" as="geometry">
            <mxPoint as="offset" />
          </mxGeometry>
        </mxCell>
        <mxCell id="TUA8Hdbmf8-CmrJUC6xi-4" value="lang is VN" style="rhombus;whiteSpace=wrap;html=1;shadow=0;fontFamily=Helvetica;fontSize=12;align=center;strokeWidth=1;spacing=6;spacingTop=-4;" vertex="1" parent="dSowcYVEUooKdNPJAT83-1">
          <mxGeometry x="200" y="230" width="100" height="80" as="geometry" />
        </mxCell>
        <mxCell id="TUA8Hdbmf8-CmrJUC6xi-5" value="translate into Vietnamese" style="rounded=1;whiteSpace=wrap;html=1;fontSize=12;glass=0;strokeWidth=1;shadow=0;" vertex="1" parent="dSowcYVEUooKdNPJAT83-1">
          <mxGeometry x="350" y="250" width="120" height="40" as="geometry" />
        </mxCell>
        <mxCell id="TUA8Hdbmf8-CmrJUC6xi-6" value="No" style="rounded=0;html=1;jettySize=auto;orthogonalLoop=1;fontSize=11;endArrow=block;endFill=0;endSize=8;strokeWidth=1;shadow=0;labelBackgroundColor=none;edgeStyle=orthogonalEdgeStyle;" edge="1" parent="dSowcYVEUooKdNPJAT83-1" source="TUA8Hdbmf8-CmrJUC6xi-8">
          <mxGeometry x="0.3333" y="20" relative="1" as="geometry">
            <mxPoint as="offset" />
            <mxPoint x="250" y="470" as="targetPoint" />
          </mxGeometry>
        </mxCell>
        <mxCell id="TUA8Hdbmf8-CmrJUC6xi-7" value="Yes" style="edgeStyle=orthogonalEdgeStyle;rounded=0;html=1;jettySize=auto;orthogonalLoop=1;fontSize=11;endArrow=block;endFill=0;endSize=8;strokeWidth=1;shadow=0;labelBackgroundColor=none;" edge="1" parent="dSowcYVEUooKdNPJAT83-1" source="TUA8Hdbmf8-CmrJUC6xi-8" target="TUA8Hdbmf8-CmrJUC6xi-9">
          <mxGeometry y="10" relative="1" as="geometry">
            <mxPoint as="offset" />
          </mxGeometry>
        </mxCell>
        <mxCell id="TUA8Hdbmf8-CmrJUC6xi-8" value="FR?" style="rhombus;whiteSpace=wrap;html=1;shadow=0;fontFamily=Helvetica;fontSize=12;align=center;strokeWidth=1;spacing=6;spacingTop=-4;" vertex="1" parent="dSowcYVEUooKdNPJAT83-1">
          <mxGeometry x="200" y="350" width="100" height="80" as="geometry" />
        </mxCell>
        <mxCell id="TUA8Hdbmf8-CmrJUC6xi-9" value="translate&amp;nbsp;into&amp;nbsp;French" style="rounded=1;whiteSpace=wrap;html=1;fontSize=12;glass=0;strokeWidth=1;shadow=0;" vertex="1" parent="dSowcYVEUooKdNPJAT83-1">
          <mxGeometry x="350" y="370" width="120" height="40" as="geometry" />
        </mxCell>
        <mxCell id="TUA8Hdbmf8-CmrJUC6xi-10" value="No" style="rounded=0;html=1;jettySize=auto;orthogonalLoop=1;fontSize=11;endArrow=block;endFill=0;endSize=8;strokeWidth=1;shadow=0;labelBackgroundColor=none;edgeStyle=orthogonalEdgeStyle;" edge="1" parent="dSowcYVEUooKdNPJAT83-1" source="TUA8Hdbmf8-CmrJUC6xi-12">
          <mxGeometry x="0.3333" y="20" relative="1" as="geometry">
            <mxPoint as="offset" />
            <mxPoint x="250" y="590" as="targetPoint" />
          </mxGeometry>
        </mxCell>
        <mxCell id="TUA8Hdbmf8-CmrJUC6xi-11" value="Yes" style="edgeStyle=orthogonalEdgeStyle;rounded=0;html=1;jettySize=auto;orthogonalLoop=1;fontSize=11;endArrow=block;endFill=0;endSize=8;strokeWidth=1;shadow=0;labelBackgroundColor=none;" edge="1" parent="dSowcYVEUooKdNPJAT83-1" source="TUA8Hdbmf8-CmrJUC6xi-12" target="TUA8Hdbmf8-CmrJUC6xi-13">
          <mxGeometry y="10" relative="1" as="geometry">
            <mxPoint as="offset" />
          </mxGeometry>
        </mxCell>
        <mxCell id="TUA8Hdbmf8-CmrJUC6xi-12" value="ES?" style="rhombus;whiteSpace=wrap;html=1;shadow=0;fontFamily=Helvetica;fontSize=12;align=center;strokeWidth=1;spacing=6;spacingTop=-4;" vertex="1" parent="dSowcYVEUooKdNPJAT83-1">
          <mxGeometry x="200" y="470" width="100" height="80" as="geometry" />
        </mxCell>
        <mxCell id="TUA8Hdbmf8-CmrJUC6xi-13" value="translate&amp;nbsp;into&amp;nbsp;Spain" style="rounded=1;whiteSpace=wrap;html=1;fontSize=12;glass=0;strokeWidth=1;shadow=0;" vertex="1" parent="dSowcYVEUooKdNPJAT83-1">
          <mxGeometry x="350" y="490" width="120" height="40" as="geometry" />
        </mxCell>
      </root>
    </mxGraphModel>
  </diagram>
  <diagram id="C5RBs43oDa-KdzZeNtuy" name="Page-1">
    <mxGraphModel dx="1425" dy="692" grid="1" gridSize="10" guides="1" tooltips="1" connect="1" arrows="1" fold="1" page="1" pageScale="1" pageWidth="827" pageHeight="1169" math="0" shadow="0">
      <root>
        <mxCell id="WIyWlLk6GJQsqaUBKTNV-0" />
        <mxCell id="WIyWlLk6GJQsqaUBKTNV-1" parent="WIyWlLk6GJQsqaUBKTNV-0" />
        <mxCell id="WIyWlLk6GJQsqaUBKTNV-2" value="" style="rounded=0;html=1;jettySize=auto;orthogonalLoop=1;fontSize=11;endArrow=block;endFill=0;endSize=8;strokeWidth=1;shadow=0;labelBackgroundColor=none;edgeStyle=orthogonalEdgeStyle;" parent="WIyWlLk6GJQsqaUBKTNV-1" source="WIyWlLk6GJQsqaUBKTNV-3" target="WIyWlLk6GJQsqaUBKTNV-6" edge="1">
          <mxGeometry relative="1" as="geometry" />
        </mxCell>
        <mxCell id="WIyWlLk6GJQsqaUBKTNV-3" value="Translate message" style="rounded=1;whiteSpace=wrap;html=1;fontSize=12;glass=0;strokeWidth=1;shadow=0;" parent="WIyWlLk6GJQsqaUBKTNV-1" vertex="1">
          <mxGeometry x="134" y="80" width="120" height="40" as="geometry" />
        </mxCell>
        <mxCell id="WIyWlLk6GJQsqaUBKTNV-4" value="no" style="rounded=0;html=1;jettySize=auto;orthogonalLoop=1;fontSize=11;endArrow=block;endFill=0;endSize=8;strokeWidth=1;shadow=0;labelBackgroundColor=none;edgeStyle=orthogonalEdgeStyle;" parent="WIyWlLk6GJQsqaUBKTNV-1" source="WIyWlLk6GJQsqaUBKTNV-6" target="WIyWlLk6GJQsqaUBKTNV-10" edge="1">
          <mxGeometry y="20" relative="1" as="geometry">
            <mxPoint as="offset" />
          </mxGeometry>
        </mxCell>
        <mxCell id="WIyWlLk6GJQsqaUBKTNV-5" value="yes" style="edgeStyle=orthogonalEdgeStyle;rounded=0;html=1;jettySize=auto;orthogonalLoop=1;fontSize=11;endArrow=block;endFill=0;endSize=8;strokeWidth=1;shadow=0;labelBackgroundColor=none;" parent="WIyWlLk6GJQsqaUBKTNV-1" source="WIyWlLk6GJQsqaUBKTNV-6" target="WIyWlLk6GJQsqaUBKTNV-7" edge="1">
          <mxGeometry y="10" relative="1" as="geometry">
            <mxPoint as="offset" />
          </mxGeometry>
        </mxCell>
        <mxCell id="WIyWlLk6GJQsqaUBKTNV-6" value="Position?" style="rhombus;whiteSpace=wrap;html=1;shadow=0;fontFamily=Helvetica;fontSize=12;align=center;strokeWidth=1;spacing=6;spacingTop=-4;" parent="WIyWlLk6GJQsqaUBKTNV-1" vertex="1">
          <mxGeometry x="144" y="170" width="100" height="80" as="geometry" />
        </mxCell>
        <mxCell id="WIyWlLk6GJQsqaUBKTNV-7" value="translate Position" style="rounded=1;whiteSpace=wrap;html=1;fontSize=12;glass=0;strokeWidth=1;shadow=0;" parent="WIyWlLk6GJQsqaUBKTNV-1" vertex="1">
          <mxGeometry x="294" y="190" width="120" height="40" as="geometry" />
        </mxCell>
        <mxCell id="WIyWlLk6GJQsqaUBKTNV-8" value="No" style="rounded=0;html=1;jettySize=auto;orthogonalLoop=1;fontSize=11;endArrow=block;endFill=0;endSize=8;strokeWidth=1;shadow=0;labelBackgroundColor=none;edgeStyle=orthogonalEdgeStyle;" parent="WIyWlLk6GJQsqaUBKTNV-1" source="WIyWlLk6GJQsqaUBKTNV-10" edge="1">
          <mxGeometry x="0.3333" y="20" relative="1" as="geometry">
            <mxPoint as="offset" />
            <mxPoint x="194" y="410" as="targetPoint" />
          </mxGeometry>
        </mxCell>
        <mxCell id="WIyWlLk6GJQsqaUBKTNV-9" value="Yes" style="edgeStyle=orthogonalEdgeStyle;rounded=0;html=1;jettySize=auto;orthogonalLoop=1;fontSize=11;endArrow=block;endFill=0;endSize=8;strokeWidth=1;shadow=0;labelBackgroundColor=none;" parent="WIyWlLk6GJQsqaUBKTNV-1" source="WIyWlLk6GJQsqaUBKTNV-10" target="WIyWlLk6GJQsqaUBKTNV-12" edge="1">
          <mxGeometry y="10" relative="1" as="geometry">
            <mxPoint as="offset" />
          </mxGeometry>
        </mxCell>
        <mxCell id="WIyWlLk6GJQsqaUBKTNV-10" value="SAlertChange?" style="rhombus;whiteSpace=wrap;html=1;shadow=0;fontFamily=Helvetica;fontSize=12;align=center;strokeWidth=1;spacing=6;spacingTop=-4;" parent="WIyWlLk6GJQsqaUBKTNV-1" vertex="1">
          <mxGeometry x="144" y="290" width="100" height="80" as="geometry" />
        </mxCell>
        <mxCell id="WIyWlLk6GJQsqaUBKTNV-12" value="translate SAlertChange" style="rounded=1;whiteSpace=wrap;html=1;fontSize=12;glass=0;strokeWidth=1;shadow=0;" parent="WIyWlLk6GJQsqaUBKTNV-1" vertex="1">
          <mxGeometry x="294" y="310" width="120" height="40" as="geometry" />
        </mxCell>
        <mxCell id="lDEEvBtXebrn3hnRN9kg-0" value="No" style="rounded=0;html=1;jettySize=auto;orthogonalLoop=1;fontSize=11;endArrow=block;endFill=0;endSize=8;strokeWidth=1;shadow=0;labelBackgroundColor=none;edgeStyle=orthogonalEdgeStyle;" edge="1" source="lDEEvBtXebrn3hnRN9kg-2" parent="WIyWlLk6GJQsqaUBKTNV-1">
          <mxGeometry x="0.3333" y="20" relative="1" as="geometry">
            <mxPoint as="offset" />
            <mxPoint x="194" y="530" as="targetPoint" />
          </mxGeometry>
        </mxCell>
        <mxCell id="lDEEvBtXebrn3hnRN9kg-1" value="Yes" style="edgeStyle=orthogonalEdgeStyle;rounded=0;html=1;jettySize=auto;orthogonalLoop=1;fontSize=11;endArrow=block;endFill=0;endSize=8;strokeWidth=1;shadow=0;labelBackgroundColor=none;" edge="1" source="lDEEvBtXebrn3hnRN9kg-2" target="lDEEvBtXebrn3hnRN9kg-3" parent="WIyWlLk6GJQsqaUBKTNV-1">
          <mxGeometry y="10" relative="1" as="geometry">
            <mxPoint as="offset" />
          </mxGeometry>
        </mxCell>
        <mxCell id="lDEEvBtXebrn3hnRN9kg-2" value="ReportResult?" style="rhombus;whiteSpace=wrap;html=1;shadow=0;fontFamily=Helvetica;fontSize=12;align=center;strokeWidth=1;spacing=6;spacingTop=-4;" vertex="1" parent="WIyWlLk6GJQsqaUBKTNV-1">
          <mxGeometry x="144" y="410" width="100" height="80" as="geometry" />
        </mxCell>
        <mxCell id="lDEEvBtXebrn3hnRN9kg-3" value="translate ReportResult" style="rounded=1;whiteSpace=wrap;html=1;fontSize=12;glass=0;strokeWidth=1;shadow=0;" vertex="1" parent="WIyWlLk6GJQsqaUBKTNV-1">
          <mxGeometry x="294" y="430" width="120" height="40" as="geometry" />
        </mxCell>
      </root>
    </mxGraphModel>
  </diagram>
  <diagram id="kclPna8MUUyQHJ-fowMT" name="Page-3">
    <mxGraphModel dx="1425" dy="692" grid="1" gridSize="10" guides="1" tooltips="1" connect="1" arrows="1" fold="1" page="1" pageScale="1" pageWidth="850" pageHeight="1100" math="0" shadow="0">
      <root>
        <mxCell id="iwmAzGNDSYYxYsPtRLY8-0" />
        <mxCell id="iwmAzGNDSYYxYsPtRLY8-1" parent="iwmAzGNDSYYxYsPtRLY8-0" />
        <mxCell id="iwmAzGNDSYYxYsPtRLY8-2" value="" style="rounded=0;html=1;jettySize=auto;orthogonalLoop=1;fontSize=11;endArrow=block;endFill=0;endSize=8;strokeWidth=1;shadow=0;labelBackgroundColor=none;edgeStyle=orthogonalEdgeStyle;" edge="1" parent="iwmAzGNDSYYxYsPtRLY8-1" source="iwmAzGNDSYYxYsPtRLY8-3" target="iwmAzGNDSYYxYsPtRLY8-6">
          <mxGeometry relative="1" as="geometry" />
        </mxCell>
        <mxCell id="iwmAzGNDSYYxYsPtRLY8-3" value="Build alert" style="rounded=1;whiteSpace=wrap;html=1;fontSize=12;glass=0;strokeWidth=1;shadow=0;" vertex="1" parent="iwmAzGNDSYYxYsPtRLY8-1">
          <mxGeometry x="200" y="30" width="120" height="40" as="geometry" />
        </mxCell>
        <mxCell id="iwmAzGNDSYYxYsPtRLY8-4" value="no" style="rounded=0;html=1;jettySize=auto;orthogonalLoop=1;fontSize=11;endArrow=block;endFill=0;endSize=8;strokeWidth=1;shadow=0;labelBackgroundColor=none;edgeStyle=orthogonalEdgeStyle;" edge="1" parent="iwmAzGNDSYYxYsPtRLY8-1" source="iwmAzGNDSYYxYsPtRLY8-6" target="iwmAzGNDSYYxYsPtRLY8-10">
          <mxGeometry y="20" relative="1" as="geometry">
            <mxPoint as="offset" />
          </mxGeometry>
        </mxCell>
        <mxCell id="iwmAzGNDSYYxYsPtRLY8-5" value="yes" style="edgeStyle=orthogonalEdgeStyle;rounded=0;html=1;jettySize=auto;orthogonalLoop=1;fontSize=11;endArrow=block;endFill=0;endSize=8;strokeWidth=1;shadow=0;labelBackgroundColor=none;" edge="1" parent="iwmAzGNDSYYxYsPtRLY8-1" source="iwmAzGNDSYYxYsPtRLY8-6" target="iwmAzGNDSYYxYsPtRLY8-7">
          <mxGeometry y="10" relative="1" as="geometry">
            <mxPoint as="offset" />
          </mxGeometry>
        </mxCell>
        <mxCell id="iwmAzGNDSYYxYsPtRLY8-6" value="Network connection?" style="rhombus;whiteSpace=wrap;html=1;shadow=0;fontFamily=Helvetica;fontSize=12;align=center;strokeWidth=1;spacing=6;spacingTop=-4;" vertex="1" parent="iwmAzGNDSYYxYsPtRLY8-1">
          <mxGeometry x="210" y="120" width="100" height="80" as="geometry" />
        </mxCell>
        <mxCell id="iwmAzGNDSYYxYsPtRLY8-7" value="build NC alert" style="rounded=1;whiteSpace=wrap;html=1;fontSize=12;glass=0;strokeWidth=1;shadow=0;" vertex="1" parent="iwmAzGNDSYYxYsPtRLY8-1">
          <mxGeometry x="360" y="140" width="120" height="40" as="geometry" />
        </mxCell>
        <mxCell id="iwmAzGNDSYYxYsPtRLY8-8" value="No" style="rounded=0;html=1;jettySize=auto;orthogonalLoop=1;fontSize=11;endArrow=block;endFill=0;endSize=8;strokeWidth=1;shadow=0;labelBackgroundColor=none;edgeStyle=orthogonalEdgeStyle;" edge="1" parent="iwmAzGNDSYYxYsPtRLY8-1" source="iwmAzGNDSYYxYsPtRLY8-10">
          <mxGeometry x="0.3333" y="20" relative="1" as="geometry">
            <mxPoint as="offset" />
            <mxPoint x="260" y="360" as="targetPoint" />
          </mxGeometry>
        </mxCell>
        <mxCell id="iwmAzGNDSYYxYsPtRLY8-9" value="Yes" style="edgeStyle=orthogonalEdgeStyle;rounded=0;html=1;jettySize=auto;orthogonalLoop=1;fontSize=11;endArrow=block;endFill=0;endSize=8;strokeWidth=1;shadow=0;labelBackgroundColor=none;" edge="1" parent="iwmAzGNDSYYxYsPtRLY8-1" source="iwmAzGNDSYYxYsPtRLY8-10" target="iwmAzGNDSYYxYsPtRLY8-11">
          <mxGeometry y="10" relative="1" as="geometry">
            <mxPoint as="offset" />
          </mxGeometry>
        </mxCell>
        <mxCell id="iwmAzGNDSYYxYsPtRLY8-10" value="Enter zone" style="rhombus;whiteSpace=wrap;html=1;shadow=0;fontFamily=Helvetica;fontSize=12;align=center;strokeWidth=1;spacing=6;spacingTop=-4;" vertex="1" parent="iwmAzGNDSYYxYsPtRLY8-1">
          <mxGeometry x="210" y="240" width="100" height="80" as="geometry" />
        </mxCell>
        <mxCell id="iwmAzGNDSYYxYsPtRLY8-11" value="build EZ alert" style="rounded=1;whiteSpace=wrap;html=1;fontSize=12;glass=0;strokeWidth=1;shadow=0;" vertex="1" parent="iwmAzGNDSYYxYsPtRLY8-1">
          <mxGeometry x="360" y="260" width="120" height="40" as="geometry" />
        </mxCell>
        <mxCell id="iwmAzGNDSYYxYsPtRLY8-12" value="No" style="rounded=0;html=1;jettySize=auto;orthogonalLoop=1;fontSize=11;endArrow=block;endFill=0;endSize=8;strokeWidth=1;shadow=0;labelBackgroundColor=none;edgeStyle=orthogonalEdgeStyle;" edge="1" parent="iwmAzGNDSYYxYsPtRLY8-1" source="iwmAzGNDSYYxYsPtRLY8-14">
          <mxGeometry x="0.3333" y="20" relative="1" as="geometry">
            <mxPoint as="offset" />
            <mxPoint x="260" y="480" as="targetPoint" />
          </mxGeometry>
        </mxCell>
        <mxCell id="iwmAzGNDSYYxYsPtRLY8-13" value="Yes" style="edgeStyle=orthogonalEdgeStyle;rounded=0;html=1;jettySize=auto;orthogonalLoop=1;fontSize=11;endArrow=block;endFill=0;endSize=8;strokeWidth=1;shadow=0;labelBackgroundColor=none;" edge="1" parent="iwmAzGNDSYYxYsPtRLY8-1" source="iwmAzGNDSYYxYsPtRLY8-14" target="iwmAzGNDSYYxYsPtRLY8-15">
          <mxGeometry y="10" relative="1" as="geometry">
            <mxPoint as="offset" />
          </mxGeometry>
        </mxCell>
        <mxCell id="iwmAzGNDSYYxYsPtRLY8-14" value="Exit zone" style="rhombus;whiteSpace=wrap;html=1;shadow=0;fontFamily=Helvetica;fontSize=12;align=center;strokeWidth=1;spacing=6;spacingTop=-4;" vertex="1" parent="iwmAzGNDSYYxYsPtRLY8-1">
          <mxGeometry x="210" y="360" width="100" height="80" as="geometry" />
        </mxCell>
        <mxCell id="iwmAzGNDSYYxYsPtRLY8-15" value="build Exit zone alert" style="rounded=1;whiteSpace=wrap;html=1;fontSize=12;glass=0;strokeWidth=1;shadow=0;" vertex="1" parent="iwmAzGNDSYYxYsPtRLY8-1">
          <mxGeometry x="360" y="380" width="120" height="40" as="geometry" />
        </mxCell>
      </root>
    </mxGraphModel>
  </diagram>
</mxfile>
